<!-- Generator: Adobe Illustrator 17.0.0, SVG Export Plug-In  -->
<svg version="1.1"
	 xmlns="http://www.w3.org/2000/svg" xmlns:xlink="http://www.w3.org/1999/xlink" xmlns:a="http://ns.adobe.com/AdobeSVGViewerExtensions/3.0/"
	 x="0px" y="0px" width="35.992px" height="29.703px" viewBox="0 0 35.992 29.703" enable-background="new 0 0 35.992 29.703"
	 xml:space="preserve">
<defs>
</defs>
<path fill="#4C4C4C" d="M31.992,10.85H13.639l4.014-4.026c1.561-1.565,1.557-4.097-0.008-5.657c-1.565-1.56-4.098-1.556-5.656,0.008
	L1.168,12.027c-1.558,1.561-1.558,4.087,0,5.648l10.82,10.852c0.781,0.784,1.807,1.176,2.832,1.176c1.021,0,2.044-0.389,2.824-1.168
	c1.564-1.56,1.568-4.092,0.008-5.657l-4.017-4.029h18.356c2.209,0,4-1.791,4-4C35.992,12.641,34.201,10.85,31.992,10.85z"/>
</svg>
